<?xml version="1.0" encoding="UTF-8"?>
<svg width="24px" height="24px" viewBox="0 0 24 24" version="1.1" xmlns="http://www.w3.org/2000/svg">
    <g stroke="none" stroke-width="1" fill="none" fill-rule="evenodd">
        <circle fill="#2ecc71" cx="12" cy="12" r="12"></circle>
        <path d="M12.6,16.5 C14.7491767,16.5 16.5,14.7491767 16.5,12.6 L16.5,12.6 L16.5,11.4 C16.5,9.25082333 14.7491767,7.5 12.6,7.5 L12.6,7.5 L11.4,7.5 C9.25082333,7.5 7.5,9.25082333 7.5,11.4 L7.5,11.4 L7.5,12.6 C7.5,14.7491767 9.25082333,16.5 11.4,16.5 L11.4,16.5 Z" fill="#FFFFFF" opacity="0.6"></path>
        <path d="M11.4,8.5 L12.6,8.5 C14.1969939,8.5 15.5,9.80300607 15.5,11.4 L15.5,11.4 L15.5,12.6 C15.5,14.1969939 14.1969939,15.5 12.6,15.5 L12.6,15.5 L11.4,15.5 C9.80300607,15.5 8.5,14.1969939 8.5,12.6 L8.5,12.6 L8.5,11.4 C8.5,9.80300607 9.80300607,8.5 11.4,8.5 L11.4,8.5 Z" fill="#FFFFFF" opacity="0.6"></path>
        <path d="M12,10 L12,14 M10,12 L14,12" stroke="#FFFFFF" stroke-width="1.5" stroke-linecap="round" stroke-linejoin="round"></path>
    </g>
</svg>