<svg class="logo" xmlns="http://www.w3.org/2000/svg" viewBox="0 0 90.214 89.271" width="253px" height="253px" xmlns:bx="https://boxy-svg.com">
  <defs>
    <clipPath id="997eeaadf5">
      <path d="M 92.765625 99.101562 L 282.515625 99.101562 L 282.515625 288.851562 L 92.765625 288.851562 Z M 92.765625 99.101562 " clip-rule="nonzero"></path>
    </clipPath>
    <clipPath id="119446c84a">
      <path d="M 187.5 144.871094 C 160.457031 144.871094 138.539062 166.792969 138.539062 193.835938 C 138.539062 220.875 160.457031 242.796875 187.5 242.796875 C 214.542969 242.796875 236.460938 220.875 236.460938 193.835938 C 236.460938 166.792969 214.542969 144.871094 187.5 144.871094 Z M 187.5 144.871094 " clip-rule="nonzero"></path>
    </clipPath>
    <mask id="158cf29361">
      <g filter="url(#40ec82a62e)">
        <rect x="-37.5" width="450" fill="#000000" y="-37.499999" height="449.999989" fill-opacity="0.28"></rect>
      </g>
    </mask>
    <filter x="0%" y="0%" width="100%" height="100%" id="40ec82a62e">
      <feColorMatrix values="0 0 0 0 1 0 0 0 0 1 0 0 0 0 1 0 0 0 1 0" color-interpolation-filters="sRGB"></feColorMatrix>
    </filter>
    <filter id="drop-shadow-filter-0" bx:preset="drop-shadow 1 2 4 0 0.5 rgba(0,0,0,0.3)" color-interpolation-filters="sRGB" x="-50%" y="-50%" width="200%" height="200%">
      <feGaussianBlur in="SourceAlpha" stdDeviation="0"></feGaussianBlur>
      <feOffset dx="2" dy="4"></feOffset>
      <feComponentTransfer result="offsetblur">
        <feFuncA id="spread-ctrl" type="linear" slope="1"></feFuncA>
      </feComponentTransfer>
      <feFlood flood-color="rgba(0,0,0,0.3)"></feFlood>
      <feComposite in2="offsetblur" operator="in"></feComposite>
      <feMerge>
        <feMergeNode></feMergeNode>
        <feMergeNode in="SourceGraphic"></feMergeNode>
      </feMerge>
    </filter>
    <style bx:fonts="Alexandria">@import url(https://fonts.googleapis.com/css2?family=Alexandria%3Aital%2Cwght%400%2C100..900&amp;display=swap);</style>
    <filter id="drop-shadow-filter-1" bx:preset="drop-shadow 1 2 2 0 0.5 rgba(0,0,0,0.3)" color-interpolation-filters="sRGB" x="-50%" y="-50%" width="200%" height="200%">
      <feGaussianBlur in="SourceAlpha" stdDeviation="0"></feGaussianBlur>
      <feOffset dx="2" dy="2"></feOffset>
      <feComponentTransfer result="offsetblur">
        <feFuncA id="spread-ctrl" type="linear" slope="1"></feFuncA>
      </feComponentTransfer>
      <feFlood flood-color="rgba(0,0,0,0.3)"></feFlood>
      <feComposite in2="offsetblur" operator="in"></feComposite>
      <feMerge>
        <feMergeNode></feMergeNode>
        <feMergeNode in="SourceGraphic"></feMergeNode>
      </feMerge>
    </filter>
    <filter id="drop-shadow-filter-2" bx:preset="drop-shadow 1 2 2 0 0.5 rgba(0,0,0,0.3)" color-interpolation-filters="sRGB" x="-50%" y="-50%" width="200%" height="200%">
      <feGaussianBlur in="SourceAlpha" stdDeviation="0"></feGaussianBlur>
      <feOffset dx="2" dy="2"></feOffset>
      <feComponentTransfer result="offsetblur">
        <feFuncA id="spread-ctrl" type="linear" slope="1"></feFuncA>
      </feComponentTransfer>
      <feFlood flood-color="rgba(0,0,0,0.3)"></feFlood>
      <feComposite in2="offsetblur" operator="in"></feComposite>
      <feMerge>
        <feMergeNode></feMergeNode>
        <feMergeNode in="SourceGraphic"></feMergeNode>
      </feMerge>
    </filter>
    <linearGradient id="color-0" gradientUnits="userSpaceOnUse" bx:pinned="true">
      <stop style="stop-color: rgb(127, 87, 65)"></stop>
    </linearGradient>
    <linearGradient id="color-1" gradientUnits="userSpaceOnUse" bx:pinned="true">
      <stop style="stop-color: rgb(100, 100, 100);"></stop>
    </linearGradient>
    <linearGradient id="color-2" gradientUnits="userSpaceOnUse" bx:pinned="true">
      <stop style="stop-color: rgb(0, 0, 0)"></stop>
    </linearGradient>
    <linearGradient id="color-3" gradientUnits="userSpaceOnUse" bx:pinned="true">
      <stop style="stop-color: rgb(255, 255, 255)"></stop>
    </linearGradient>
    <linearGradient id="color-4" gradientUnits="userSpaceOnUse" bx:pinned="true">
      <stop style="stop-color: rgb(144, 144, 144);"></stop>
    </linearGradient>
  </defs>
  <g transform="matrix(0.427339, 0, 0, 0.427339, 0, 0)">
    <g clip-path="url(#997eeaadf5)" style="" transform="matrix(1, 0, 0, 1, -81.964297, -89.158625)">
      <bx:title>Logo</bx:title>
      <g clip-path="url(#119446c84a)" style="" transform="matrix(1.078241, 0, 0, 1.083454, -15.947115, -16.176177)">
        <bx:title>Circle</bx:title>
        <path d="M 138.539062 144.871094 L 236.460938 144.871094 L 236.460938 242.796875 L 138.539062 242.796875 Z M 138.539062 144.871094 " fill-opacity="1" fill-rule="nonzero" style="stroke-width: 0px; fill: url(#color-4);"></path>
      </g>
      <path d="M 187.640625 244.726562 C 159.65625 244.726562 136.890625 221.960938 136.890625 193.976562 C 136.890625 165.992188 159.65625 143.226562 187.640625 143.226562 C 215.625 143.226562 238.394531 165.992188 238.394531 193.976562 C 238.394531 221.960938 215.625 244.726562 187.640625 244.726562 Z M 271.515625 182.972656 C 266.636719 182.972656 262.507812 186.144531 261.0625 190.539062 L 245.167969 190.539062 C 244.378906 177.234375 239.0625 165.128906 230.730469 155.753906 L 244.269531 142.214844 C 248.394531 144.296875 253.5625 143.621094 257.007812 140.171875 C 261.304688 135.875 261.304688 128.90625 257.007812 124.609375 C 252.710938 120.3125 245.746094 120.3125 241.449219 124.609375 C 238 128.058594 237.320312 133.222656 239.40625 137.351562 L 225.867188 150.886719 C 216.488281 142.558594 204.386719 137.238281 191.082031 136.453125 L 191.082031 120.558594 C 195.472656 119.113281 198.644531 114.980469 198.644531 110.105469 C 198.644531 104.027344 193.71875 99.101562 187.640625 99.101562 C 181.566406 99.101562 176.640625 104.027344 176.640625 110.105469 C 176.640625 114.980469 179.8125 119.113281 184.203125 120.558594 L 184.203125 136.453125 C 170.898438 137.238281 158.796875 142.558594 149.417969 150.886719 L 135.878906 137.351562 C 137.964844 133.222656 137.285156 128.058594 133.835938 124.609375 C 129.539062 120.3125 122.574219 120.3125 118.277344 124.609375 C 113.980469 128.90625 113.980469 135.875 118.277344 140.171875 C 121.722656 143.621094 126.886719 144.296875 131.015625 142.214844 L 144.550781 155.753906 C 136.226562 165.128906 130.90625 177.234375 130.117188 190.539062 L 114.222656 190.539062 C 112.777344 186.144531 108.644531 182.972656 103.769531 182.972656 C 97.695312 182.972656 92.765625 187.898438 92.765625 193.976562 C 92.765625 200.054688 97.695312 204.980469 103.769531 204.980469 C 108.644531 204.980469 112.777344 201.808594 114.222656 197.417969 L 130.117188 197.417969 C 130.90625 210.722656 136.226562 222.824219 144.550781 232.203125 L 131.015625 245.738281 C 126.886719 243.65625 121.722656 244.335938 118.277344 247.78125 C 113.980469 252.078125 113.980469 259.046875 118.277344 263.34375 C 122.574219 267.640625 129.539062 267.640625 133.835938 263.34375 C 137.285156 259.898438 137.964844 254.730469 135.878906 250.605469 L 149.417969 237.066406 C 158.796875 245.394531 170.898438 250.714844 184.203125 251.503906 L 184.203125 267.398438 C 179.8125 268.84375 176.640625 272.972656 176.640625 277.847656 C 176.640625 283.925781 181.566406 288.851562 187.640625 288.851562 C 193.71875 288.851562 198.644531 283.925781 198.644531 277.847656 C 198.644531 272.972656 195.472656 268.84375 191.082031 267.398438 L 191.082031 251.503906 C 204.386719 250.714844 216.488281 245.394531 225.867188 237.066406 L 239.40625 250.605469 C 237.320312 254.730469 238 259.898438 241.449219 263.34375 C 245.746094 267.640625 252.710938 267.640625 257.007812 263.34375 C 261.304688 259.046875 261.304688 252.078125 257.007812 247.78125 C 253.5625 244.335938 248.394531 243.65625 244.269531 245.738281 L 230.730469 232.203125 C 239.0625 222.824219 244.378906 210.722656 245.167969 197.417969 L 261.0625 197.417969 C 262.507812 201.808594 266.636719 204.980469 271.515625 204.980469 C 277.589844 204.980469 282.515625 200.054688 282.515625 193.976562 C 282.515625 187.898438 277.589844 182.972656 271.515625 182.972656 " fill-opacity="1" fill-rule="nonzero" style="">
        <bx:title>Network</bx:title>
      </path>
      <g style="filter: url(#drop-shadow-filter-0);" transform="matrix(1, 0, 0, 1, 0.893607, -3.724324)">
        <bx:title>Hand</bx:title>
        <path d="M 162.382812 208.144531 L 159.523438 210.15625 C 156.917969 211.992188 155.128906 212.761719 151.273438 205.992188 L 149.667969 203.1875 C 145.8125 196.40625 147.210938 194.941406 149.8125 193.113281 L 152.679688 191.097656 Z M 162.382812 208.144531 " fill-opacity="1" fill-rule="nonzero" style="stroke: rgb(153, 153, 153); stroke-width: 0px; fill: rgb(255, 255, 255);"></path>
        <path d="M 231.433594 192.648438 C 231.890625 193.5 232.105469 194.507812 232.003906 195.433594 C 231.886719 196.542969 231.359375 197.351562 230.90625 197.503906 L 200.9375 211.039062 C 196.59375 212.445312 189.746094 210.132812 183.703125 208.09375 C 178.566406 206.359375 174.132812 204.855469 171.433594 205.75 L 164.972656 206.9375 L 155.15625 189.703125 L 163.820312 185.78125 C 170.457031 182.773438 174.449219 184.28125 181.066406 186.777344 C 185.117188 188.308594 190.164062 190.203125 197.160156 191.511719 C 202.925781 192.585938 204.617188 196.445312 205.003906 197.601562 C 205.46875 199.007812 205.398438 200.378906 204.828125 201.089844 C 204.210938 201.84375 203.839844 201.828125 200.871094 200.953125 C 200.375 200.8125 199.828125 200.652344 199.226562 200.484375 C 199.136719 200.460938 199.046875 200.449219 198.953125 200.445312 L 185.695312 199.761719 C 184.921875 199.722656 184.289062 200.402344 184.285156 201.277344 C 184.285156 202.152344 184.910156 202.898438 185.679688 202.9375 L 198.804688 203.613281 C 199.339844 203.765625 199.828125 203.902344 200.273438 204.035156 C 203.214844 204.898438 205.15625 205.472656 206.929688 203.296875 C 207.863281 202.128906 208.25 200.433594 208.058594 198.605469 L 228.445312 190.851562 C 229.230469 190.613281 230.167969 190.996094 230.902344 191.863281 C 231.101562 192.105469 231.28125 192.375 231.433594 192.65625 Z M 231.433594 192.648438 " fill-opacity="1" fill-rule="nonzero" style="stroke: rgb(153, 153, 153); stroke-width: 0px; fill: rgb(255, 255, 255);"></path>
      </g>
      <g mask="url(#158cf29361)" style="visibility: hidden;" transform="matrix(0.594222, 0, 0, 0.618175, 31.864902, 86.794818)">
        <bx:title>Stellar Logo</bx:title>
        <path d="M 218.027 163.793 L 214.273 165.703 L 196.145 174.941 C 196.082 174.473 196.051 174.004 196.051 173.531 C 196.051 173.063 196.082 172.594 196.145 172.129 C 196.203 171.668 196.297 171.207 196.418 170.754 C 196.539 170.301 196.688 169.859 196.867 169.426 C 197.043 168.992 197.25 168.574 197.484 168.168 C 197.715 167.762 197.977 167.371 198.258 167 C 198.543 166.625 198.852 166.273 199.18 165.941 C 199.508 165.609 199.859 165.297 200.23 165.012 C 200.598 164.723 200.988 164.461 201.391 164.227 C 201.793 163.988 202.211 163.777 202.645 163.598 C 203.074 163.414 203.516 163.262 203.969 163.137 C 204.418 163.008 204.879 162.914 205.34 162.848 C 205.805 162.785 206.27 162.75 206.738 162.742 C 207.207 162.738 207.676 162.766 208.141 162.82 C 208.605 162.875 209.066 162.961 209.52 163.078 C 209.973 163.191 210.418 163.336 210.852 163.512 C 211.289 163.684 211.711 163.887 212.117 164.113 L 214.266 163.02 L 214.59 162.855 C 213.605 162.141 212.539 161.574 211.398 161.152 C 210.258 160.73 209.082 160.473 207.867 160.379 C 206.656 160.285 205.453 160.355 204.262 160.594 C 203.066 160.832 201.93 161.227 200.844 161.777 C 199.762 162.332 198.773 163.02 197.879 163.848 C 196.988 164.672 196.223 165.605 195.59 166.641 C 194.953 167.68 194.469 168.781 194.141 169.953 C 193.809 171.125 193.645 172.316 193.645 173.535 C 193.645 173.871 193.656 174.203 193.684 174.539 C 193.719 175.02 193.621 175.473 193.383 175.895 C 193.145 176.316 192.813 176.637 192.379 176.855 L 191.246 177.434 L 191.246 180.129 L 194.582 178.43 L 195.664 177.879 L 196.727 177.336 L 215.844 167.598 L 217.992 166.504 L 222.43 164.242 L 222.43 161.547 L 218.027 163.793 Z M 218.027 163.793" fill-opacity="1" fill-rule="nonzero" style="fill: rgb(255, 255, 255);">
          <bx:title>Top</bx:title>
        </path>
        <path d="M 222.43 166.938 L 197.813 179.473 L 195.668 180.566 L 191.246 182.82 L 191.246 185.512 L 195.637 183.277 L 199.391 181.363 L 217.539 172.113 C 217.602 172.586 217.633 173.059 217.633 173.535 C 217.633 174.004 217.602 174.469 217.539 174.934 C 217.48 175.398 217.391 175.859 217.27 176.313 C 217.148 176.766 216.996 177.207 216.82 177.641 C 216.641 178.074 216.434 178.496 216.199 178.902 C 215.969 179.309 215.707 179.699 215.426 180.074 C 215.141 180.445 214.832 180.797 214.504 181.133 C 214.172 181.465 213.82 181.773 213.453 182.063 C 213.082 182.352 212.691 182.613 212.289 182.848 C 211.883 183.086 211.465 183.297 211.031 183.477 C 210.602 183.66 210.16 183.813 209.707 183.938 C 209.254 184.063 208.797 184.16 208.332 184.223 C 207.867 184.289 207.402 184.324 206.934 184.328 C 206.465 184.332 205.996 184.305 205.531 184.25 C 205.066 184.191 204.605 184.105 204.148 183.992 C 203.695 183.875 203.25 183.73 202.816 183.555 C 202.379 183.379 201.957 183.18 201.551 182.949 L 201.418 183.02 L 199.086 184.207 C 200.07 184.922 201.133 185.488 202.273 185.91 C 203.418 186.328 204.594 186.586 205.805 186.684 C 207.02 186.777 208.223 186.707 209.414 186.469 C 210.605 186.23 211.746 185.836 212.828 185.285 C 213.91 184.734 214.898 184.043 215.793 183.219 C 216.688 182.395 217.449 181.461 218.086 180.426 C 218.723 179.387 219.203 178.285 219.535 177.113 C 219.867 175.945 220.031 174.75 220.031 173.535 C 220.031 173.195 220.02 172.855 219.992 172.52 C 219.957 172.039 220.059 171.586 220.293 171.164 C 220.531 170.742 220.863 170.422 221.297 170.203 L 222.43 169.625 L 222.43 166.938 Z M 222.43 166.938" fill-opacity="1" fill-rule="nonzero" style="fill: rgb(255, 255, 255);">
          <bx:title>Bottom</bx:title>
        </path>
      </g>
      <text style="fill: rgb(255, 255, 255); stroke-width: 0.62px; white-space: pre; visibility: hidden;" transform="matrix(1, 0, 0, 1, 21.311351, -24.798657)"><tspan x="156.843" y="185.703">The</tspan><tspan x="156.843" dy="1.4em">​</tspan></text>
      <text style="stroke-width: 0.62px; white-space: pre; filter: url(#drop-shadow-filter-2); visibility: hidden;" y="180.996" x="157.521"><tspan style="fill: rgb(255, 255, 255); font-family: Alexandria; font-size: 23px; word-spacing: 0px;">Give</tspan></text>
      <text style="stroke-width: 0.62px; white-space: pre; filter: url(#drop-shadow-filter-1); visibility: hidden;" x="188.132" y="201.144"><tspan style="fill: rgb(255, 255, 255); font-family: Alexandria; font-size: 23px; word-spacing: 0px;">Hub</tspan></text>
    </g>
    <ellipse style="fill-rule: evenodd; fill: url(#color-1); stroke: rgb(0, 0, 0); stroke-width: 4px;" cx="40.504" cy="39.768" rx="16.693" ry="16.693"></ellipse>
    <ellipse style="fill-rule: evenodd; fill: url(#color-1); stroke: rgb(0, 0, 0); stroke-width: 4px;" cx="16.693" cy="104.573" rx="16.693" ry="16.693"></ellipse>
    <ellipse style="fill-rule: evenodd; fill: url(#color-1); stroke: rgb(0, 0, 0); stroke-width: 4px;" cx="40.258" cy="169.377" rx="16.693" ry="16.693"></ellipse>
    <ellipse style="fill-rule: evenodd; fill: url(#color-1); stroke: rgb(0, 0, 0); stroke-width: 4px;" cx="105.799" cy="192.206" rx="16.693" ry="16.693"></ellipse>
    <ellipse style="fill-rule: evenodd; fill: url(#color-1); stroke: rgb(0, 0, 0); stroke-width: 4px;" cx="169.131" cy="170.359" rx="16.693" ry="16.693"></ellipse>
    <ellipse style="fill-rule: evenodd; fill: url(#color-1); stroke: rgb(0, 0, 0); stroke-width: 4px;" cx="194.414" cy="105.309" rx="16.693" ry="16.693"></ellipse>
    <ellipse style="fill-rule: evenodd; stroke: rgb(0, 0, 0); stroke-width: 4px; fill: url(#color-1);" cx="169.867" cy="41.24" rx="16.693" ry="16.693"></ellipse>
    <ellipse style="fill-rule: evenodd; fill: url(#color-1); stroke: rgb(0, 0, 0); stroke-width: 4px;" cx="105.553" cy="16.693" rx="16.693" ry="16.693"></ellipse>
  </g>
</svg>

